<svg xmlns="http://www.w3.org/2000/svg" width="48" height="48" viewBox="0 0 48 48">
  <path fill="#111827" d="M10,0h28c5.52,0 10,4.48 10,10v28c0,5.52 -4.48,10 -10,10H10C4.48,48 0,43.52 0,38V10C0,4.48 4.48,0 10,0z"/>
  <path fill="#FFFFFF" d="M24,9c-4.42,0 -8,3.58 -8,8v8c0,4.42 3.58,8 8,8s8,-3.58 8,-8v-8c0,-4.42 -3.58,-8 -8,-8zM20,17c0,-2.21 1.79,-4 4,-4s4,1.79 4,4v8c0,2.21 -1.79,4 -4,4s-4,-1.79 -4,-4v-8z"/>
  <path fill="#FFFFFF" d="M13,24c0,-1.1 0.9,-2 2,-2s2,0.9 2,2c0,3.87 3.13,7 7,7s7,-3.13 7,-7c0,-1.1 0.9,-2 2,-2s2,0.9 2,2c0,5.39 -3.98,9.85 -9.17,10.61V39h4.17c1.1,0 2,0.9 2,2s-0.9,2 -2,2H18c-1.1,0 -2,-0.9 -2,-2s0.9,-2 2,-2h3.83v-4.39C16.84,33.85 13,29.39 13,24z"/>
</svg>
